<svg width="36" height="36" viewBox="0 0 36 36" fill="none" xmlns="http://www.w3.org/2000/svg">
<rect width="36" height="36" rx="8" fill="#FFCC91" fill-opacity="0.16"/>
<path fill-rule="evenodd" clip-rule="evenodd" d="M15.9929 20.6724C19.0671 20.6724 21.6946 21.1382 21.6946 22.999C21.6946 24.8599 19.0846 25.339 15.9929 25.339C12.9179 25.339 10.2913 24.8774 10.2913 23.0157C10.2913 21.154 12.9004 20.6724 15.9929 20.6724Z" stroke="#130F26" stroke-width="1.5" stroke-linecap="round" stroke-linejoin="round"/>
<path fill-rule="evenodd" clip-rule="evenodd" d="M15.9929 18.0163C13.9746 18.0163 12.3379 16.3805 12.3379 14.3622C12.3379 12.3438 13.9746 10.708 15.9929 10.708C18.0104 10.708 19.6471 12.3438 19.6471 14.3622C19.6546 16.373 18.0296 18.0088 16.0188 18.0163H15.9929Z" stroke="#130F26" stroke-width="1.5" stroke-linecap="round" stroke-linejoin="round"/>
<path d="M21.7359 17.0679C23.0701 16.8804 24.0976 15.7354 24.1001 14.3496C24.1001 12.9837 23.1043 11.8504 21.7984 11.6362" stroke="#130F26" stroke-width="1.5" stroke-linecap="round" stroke-linejoin="round"/>
<path d="M23.4962 20.2769C24.7887 20.4694 25.6912 20.9227 25.6912 21.856C25.6912 22.4985 25.2662 22.9152 24.5795 23.176" stroke="#130F26" stroke-width="1.5" stroke-linecap="round" stroke-linejoin="round"/>
</svg>
