<svg width="36" height="36" viewBox="0 0 36 36" fill="none" xmlns="http://www.w3.org/2000/svg">
<rect width="36" height="36" rx="8" fill="#5570F1" fill-opacity="0.12"/>
<path fill-rule="evenodd" clip-rule="evenodd" d="M25.2779 21.8891C25.9526 21.8891 26.5189 22.446 26.4158 23.1123C25.8105 27.0323 22.4547 29.9428 18.4074 29.9428C13.9295 29.9428 10.3 26.3134 10.3 21.8365C10.3 18.1481 13.1021 14.7123 16.2568 13.9355C16.9347 13.7681 17.6295 14.2449 17.6295 14.9428C17.6295 19.6712 17.7884 20.8944 18.6863 21.5597C19.5842 22.2249 20.64 21.8891 25.2779 21.8891Z" stroke="#5570F1" stroke-width="1.5" stroke-linecap="round" stroke-linejoin="round"/>
<path fill-rule="evenodd" clip-rule="evenodd" d="M29.6925 17.9516C29.7462 14.9137 26.0146 10.0168 21.4672 10.101C21.1136 10.1074 20.8304 10.4021 20.8146 10.7547C20.6999 13.2526 20.8546 16.4895 20.9409 17.9568C20.9672 18.4137 21.3262 18.7726 21.782 18.7989C23.2904 18.8853 26.6451 19.0032 29.1072 18.6305C29.442 18.58 29.6872 18.2895 29.6925 17.9516Z" stroke="#5570F1" stroke-width="1.5" stroke-linecap="round" stroke-linejoin="round"/>
</svg>
