<svg width="16" height="16" viewBox="0 0 16 16" fill="none" xmlns="http://www.w3.org/2000/svg">
<path d="M6.09581 13.8547V11.8101C6.0958 11.292 6.5171 10.8711 7.03895 10.8679H8.95506C9.47924 10.8679 9.90417 11.2897 9.90417 11.8101V13.8488C9.90416 14.2982 10.2693 14.6634 10.7219 14.6666H12.0292C12.6397 14.6682 13.2258 14.4285 13.6581 14.0005C14.0904 13.5724 14.3333 12.9911 14.3333 12.385V6.57721C14.3333 6.08757 14.1147 5.62312 13.7364 5.30898L9.29531 1.78283C8.519 1.16606 7.41024 1.18599 6.65692 1.83024L2.31133 5.30898C1.91515 5.61386 1.67836 6.07969 1.66666 6.57721V12.3791C1.66666 13.6425 2.69824 14.6666 3.97077 14.6666H5.24818C5.4661 14.6682 5.67565 14.5834 5.8303 14.4309C5.98496 14.2785 6.07194 14.0711 6.07193 13.8547H6.09581Z" fill="#5570F1"/>
</svg>
