<svg width="52" height="52" viewBox="0 0 52 52" fill="none" xmlns="http://www.w3.org/2000/svg">
<path d="M21.9978 12.037C22.1081 12.2616 22.181 12.5021 22.2137 12.7494L22.8169 21.7192L23.1164 26.2277C23.1195 26.6913 23.1922 27.1519 23.3323 27.5947C23.694 28.4539 24.564 28.9999 25.5106 28.9618L39.9347 28.0183C40.5593 28.008 41.1625 28.2417 41.6115 28.6678C41.9857 29.0229 42.2273 29.4874 42.3034 29.987L42.3289 30.2904C41.732 38.5556 35.6617 45.4494 27.4136 47.229C19.1655 49.0085 10.7075 45.2493 6.6317 37.9923C5.45667 35.8839 4.72274 33.5665 4.47299 31.1761C4.36866 30.4685 4.32272 29.7537 4.33562 29.0388C4.32274 20.1776 10.633 12.5167 19.4662 10.6699C20.5293 10.5043 21.5716 11.0671 21.9978 12.037Z" fill="#97A5EB"/>
<path opacity="0.4" d="M27.8851 4.33509C37.7648 4.58644 46.0684 11.6909 47.6667 21.2599L47.6515 21.3305L47.6078 21.4332L47.6139 21.7151C47.5913 22.0885 47.4471 22.4478 47.1987 22.738C46.9398 23.0403 46.5862 23.2462 46.1968 23.3261L45.9594 23.3587L29.3177 24.437C28.7641 24.4916 28.213 24.3131 27.8013 23.9459C27.4583 23.6399 27.239 23.2268 27.177 22.7818L26.06 6.16428C26.0406 6.10809 26.0406 6.04718 26.06 5.99099C26.0753 5.53294 26.2769 5.09997 26.6198 4.78881C26.9628 4.47766 27.4185 4.31425 27.8851 4.33509Z" fill="#FFCC91"/>
</svg>
