<svg width="36" height="36" viewBox="0 0 36 36" fill="none" xmlns="http://www.w3.org/2000/svg">
<rect width="36" height="36" rx="8" fill="#5570F1" fill-opacity="0.08"/>
<g clip-path="url(#clip0_2343_3922)">
<path d="M25.6752 21.2417C25.145 22.4955 24.3158 23.6002 23.2601 24.4595C22.2043 25.3187 20.9541 25.9063 19.6189 26.1707C18.2836 26.4352 16.9039 26.3685 15.6003 25.9766C14.2967 25.5846 13.109 24.8793 12.141 23.9223C11.173 22.9653 10.4542 21.7857 10.0474 20.4867C9.64055 19.1877 9.55814 17.8088 9.80734 16.4706C10.0565 15.1324 10.6298 13.8756 11.4769 12.8101C12.324 11.7446 13.4192 10.9028 14.6668 10.3584" stroke="#5570F1" stroke-width="2" stroke-linecap="round" stroke-linejoin="round"/>
<path d="M26.3333 17.9998C26.3333 16.9055 26.1178 15.8219 25.699 14.8108C25.2802 13.7998 24.6664 12.8811 23.8926 12.1073C23.1187 11.3335 22.2001 10.7196 21.189 10.3008C20.178 9.88205 19.0943 9.6665 18 9.6665V17.9998H26.3333Z" stroke="#5570F1" stroke-width="2" stroke-linecap="round" stroke-linejoin="round"/>
</g>
<defs>
<clipPath id="clip0_2343_3922">
<rect width="20" height="20" fill="white" transform="translate(8 8)"/>
</clipPath>
</defs>
</svg>
